<svg width="120" height="100" viewBox="0 0 120 100" fill="none" xmlns="http://www.w3.org/2000/svg">
<path d="M57.9147 48.726C53.8013 48.726 50.2907 47.2567 47.3829 44.3181C44.4751 41.3823 43.0212 37.8973 43.0212 33.863C43.0212 29.758 44.4751 26.2546 47.3829 23.3527C50.2907 20.4509 53.8013 19 57.9147 19C62.0282 19 65.5388 20.4509 68.4466 23.3527C71.3544 26.2546 72.8083 29.758 72.8083 33.863C72.8083 37.8973 71.3544 41.3823 68.4466 44.3181C65.5388 47.2567 62.0282 48.726 57.9147 48.726ZM26 81V71.5514C26 69.4989 26.5674 67.5879 27.7021 65.8185C28.8369 64.0491 30.3262 62.6689 32.1702 61.6781C36.4255 59.6256 40.6808 58.0855 44.9361 57.0578C49.1914 56.033 53.5176 55.5205 57.9147 55.5205C62.241 55.5205 66.5487 56.033 70.8381 57.0578C75.1303 58.0855 79.3685 59.6256 83.5529 61.6781C85.4678 62.6689 86.9926 64.0491 88.1274 65.8185C89.2621 67.5879 89.8295 69.4989 89.8295 71.5514V81H26ZM57.9147 42.3562C60.2552 42.3562 62.2594 41.5238 63.9275 39.8592C65.5927 38.1974 66.4253 36.1986 66.4253 33.863C66.4253 31.5274 65.5927 29.5273 63.9275 27.8626C62.2594 26.2008 60.2552 25.3699 57.9147 25.3699C55.5743 25.3699 53.5715 26.2008 51.9063 27.8626C50.2382 29.5273 49.4041 31.5274 49.4041 33.863C49.4041 36.1986 50.2382 38.1974 51.9063 39.8592C53.5715 41.5238 55.5743 42.3562 57.9147 42.3562ZM32.3829 74.6301H83.4465V71.5514C83.4465 70.7021 83.1983 69.9235 82.7019 69.2158C82.2054 68.508 81.5316 67.9064 80.6806 67.411C76.9927 65.6416 73.2508 64.2784 69.4551 63.3215C65.6622 62.3674 61.8154 61.8904 57.9147 61.8904C54.0141 61.8904 50.1673 62.3674 46.3744 63.3215C42.5786 64.2784 38.8368 65.6416 35.1489 67.411C34.2978 67.9064 33.6241 68.508 33.1276 69.2158C32.6312 69.9235 32.3829 70.7021 32.3829 71.5514V74.6301Z" fill="#273238"/>
<path d="M82 41H97" stroke="#FE6E27" stroke-width="3" stroke-linecap="round"/>
<path d="M90 33L90 48" stroke="#FE6E27" stroke-width="3" stroke-linecap="round"/>
</svg>
