<svg width="120" height="100" viewBox="0 0 120 100" fill="none" xmlns="http://www.w3.org/2000/svg">
<path d="M30 87V34.7212H49.2086V21.5509L60 12L70.7914 21.5509V50.807H90V87H30ZM34.3165 82.9785H47.2662V70.9142H34.3165V82.9785ZM34.3165 66.8928H47.2662V54.8284H34.3165V66.8928ZM34.3165 50.807H47.2662V38.7426H34.3165V50.807ZM53.5252 82.9785H66.4748V70.9142H53.5252V82.9785ZM53.5252 66.8928H66.4748V54.8284H53.5252V66.8928ZM53.5252 50.807H66.4748V38.7426H53.5252V50.807ZM53.5252 34.7212H66.4748V22.6568H53.5252V34.7212ZM72.7338 82.9785H85.6835V70.9142H72.7338V82.9785ZM72.7338 66.8928H85.6835V54.8284H72.7338V66.8928Z" fill="#273238"/>
<path d="M70.7954 50.7625L90.0001 50.7625V86.9999L70.7954 86.9999V50.7625Z" fill="#FE6E27"/>
<path d="M87 54.8233H74V67H87V54.8233Z" fill="white"/>
<path d="M87 71H74V83.1767H87V71Z" fill="white"/>
</svg>
