<svg width="120" height="100" viewBox="0 0 120 100" fill="none" xmlns="http://www.w3.org/2000/svg">
<path d="M68.9998 48.5137C70.7728 46.532 72.1033 44.2671 72.9912 41.7192C73.8763 39.1712 74.3189 36.5525 74.3189 33.863C74.3189 31.1027 73.8763 28.4486 72.9912 25.9007C72.1033 23.3527 70.7728 21.1233 68.9998 19.2123C72.7586 19.637 75.8621 21.2464 78.3104 24.0407C80.7557 26.8378 81.9784 30.1119 81.9784 33.863C81.9784 37.6142 80.7557 40.8869 78.3104 43.6811C75.8621 46.4782 72.7586 48.089 68.9998 48.5137ZM91.3401 81V71.0206C91.3401 68.7557 90.8621 66.5786 89.906 64.4893C88.9472 62.4028 87.6167 60.6164 85.9146 59.1301C89.177 60.1918 92.1741 61.6427 94.906 63.4829C97.6351 65.3231 98.9996 67.8356 98.9996 71.0206V81H91.3401ZM50.9147 48.726C46.8013 48.726 43.2907 47.2567 40.3829 44.3181C37.4751 41.3823 36.0212 37.8973 36.0212 33.863C36.0212 29.758 37.4751 26.2546 40.3829 23.3527C43.2907 20.4509 46.8013 19 50.9147 19C55.0282 19 58.5388 20.4509 61.4466 23.3527C64.3544 26.2546 65.8083 29.758 65.8083 33.863C65.8083 37.8973 64.3544 41.3823 61.4466 44.3181C58.5388 47.2567 55.0282 48.726 50.9147 48.726ZM19 81V71.5514C19 69.4989 19.5674 67.5879 20.7021 65.8185C21.8369 64.0491 23.3262 62.6689 25.1702 61.6781C29.4255 59.6256 33.6808 58.0855 37.9361 57.0578C42.1914 56.033 46.5176 55.5205 50.9147 55.5205C55.241 55.5205 59.5487 56.033 63.8381 57.0578C68.1303 58.0855 72.3685 59.6256 76.5529 61.6781C78.4678 62.6689 79.9926 64.0491 81.1274 65.8185C82.2621 67.5879 82.8295 69.4989 82.8295 71.5514V81H19ZM50.9147 42.3562C53.2552 42.3562 55.2594 41.5238 56.9275 39.8592C58.5927 38.1974 59.4253 36.1986 59.4253 33.863C59.4253 31.5274 58.5927 29.5273 56.9275 27.8626C55.2594 26.2008 53.2552 25.3699 50.9147 25.3699C48.5743 25.3699 46.5715 26.2008 44.9063 27.8626C43.2382 29.5273 42.4041 31.5274 42.4041 33.863C42.4041 36.1986 43.2382 38.1974 44.9063 39.8592C46.5715 41.5238 48.5743 42.3562 50.9147 42.3562ZM25.3829 74.6301H76.4465V71.5514C76.4465 70.7021 76.1983 69.9235 75.7019 69.2158C75.2054 68.508 74.5316 67.9064 73.6806 67.411C69.9927 65.6416 66.2508 64.2784 62.4551 63.3215C58.6622 62.3674 54.8154 61.8904 50.9147 61.8904C47.0141 61.8904 43.1673 62.3674 39.3744 63.3215C35.5786 64.2784 31.8368 65.6416 28.1489 67.411C27.2978 67.9064 26.6241 68.508 26.1276 69.2158C25.6312 69.9235 25.3829 70.7021 25.3829 71.5514V74.6301Z" fill="#273238"/>
<path d="M72.9912 41.7192C72.1033 44.2671 70.7728 46.532 68.9998 48.5137C72.7586 48.089 75.8621 46.4782 78.3104 43.6811C80.7557 40.8869 81.9784 37.6142 81.9784 33.863C81.9784 30.1119 80.7557 26.8378 78.3104 24.0407C75.8621 21.2464 72.7586 19.637 68.9998 19.2123C70.7728 21.1233 72.1033 23.3527 72.9912 25.9007C73.8763 28.4486 74.3189 31.1027 74.3189 33.863C74.3189 36.5525 73.8763 39.1712 72.9912 41.7192Z" fill="#273238"/>
<path d="M72.9912 41.7192C72.1033 44.2671 70.7728 46.532 68.9998 48.5137C72.7586 48.089 75.8621 46.4782 78.3104 43.6811C80.7557 40.8869 81.9784 37.6142 81.9784 33.863C81.9784 30.1119 80.7557 26.8378 78.3104 24.0407C75.8621 21.2464 72.7586 19.637 68.9998 19.2123C70.7728 21.1233 72.1033 23.3527 72.9912 25.9007C73.8763 28.4486 74.3189 31.1027 74.3189 33.863C74.3189 36.5525 73.8763 39.1712 72.9912 41.7192Z" fill="#273238"/>
<path d="M91.3405 71.0205V81H99.0001V71.0205C99.0001 67.8356 97.6355 65.3231 94.9065 63.4829C92.1746 61.6427 89.1774 60.1918 85.915 59.1301C87.6172 60.6164 88.9476 62.4028 89.9065 64.4893C90.8625 66.5786 91.3405 68.7557 91.3405 71.0205Z" fill="#FE6E27"/>
<path d="M72.9912 41.7192C72.1033 44.2671 70.7728 46.532 68.9998 48.5137C72.7586 48.0891 75.8621 46.4782 78.3103 43.6811C80.7557 40.8869 81.9784 37.6142 81.9784 33.863C81.9784 30.1119 80.7557 26.8378 78.3103 24.0407C75.8621 21.2465 72.7586 19.637 68.9998 19.2123C70.7728 21.1233 72.1033 23.3528 72.9912 25.9007C73.8763 28.4486 74.3189 31.1028 74.3189 33.863C74.3189 36.5525 73.8763 39.1712 72.9912 41.7192Z" fill="#FE6E27"/>
<path d="M72.9912 41.7192C72.1033 44.2671 70.7728 46.532 68.9998 48.5137C72.7586 48.0891 75.8621 46.4782 78.3103 43.6811C80.7557 40.8869 81.9784 37.6142 81.9784 33.863C81.9784 30.1119 80.7557 26.8378 78.3103 24.0407C75.8621 21.2465 72.7586 19.637 68.9998 19.2123C70.7728 21.1233 72.1033 23.3528 72.9912 25.9007C73.8763 28.4486 74.3189 31.1028 74.3189 33.863C74.3189 36.5525 73.8763 39.1712 72.9912 41.7192Z" fill="#FE6E27"/>
</svg>
